<svg xmlns="http://www.w3.org/2000/svg" xmlns:xlink="http://www.w3.org/1999/xlink" viewBox="0,0,255.99841,255.99841" width="100px" height="100px" fill-rule="nonzero"><g fill="#ff0000" fill-rule="nonzero" stroke="none" stroke-width="1" stroke-linecap="butt" stroke-linejoin="miter" stroke-miterlimit="10" stroke-dasharray="" stroke-dashoffset="0" font-family="none" font-weight="none" font-size="none" text-anchor="none" style="mix-blend-mode: normal"><g transform="scale(2.56,2.56)"><path d="M28,15.00586c-1.53756,0 -3.0747,0.58447 -4.24219,1.75195c-1.00623,1.00624 -2.15631,2.17438 -3.03906,3.07617c-1.04758,1.06905 -1.84058,2.35918 -2.32227,3.77539c-0.0008,0.0023 -0.78614,2.30171 -1.57812,4.61719c-0.39619,1.15833 -0.79526,2.32059 -1.0957,3.19922c-0.30009,0.87761 -0.46824,1.36961 -0.51367,1.50586c-0.27777,0.82933 -0.27992,1.734 0.00977,2.57227c0,0.00065 0,0.0013 0,0.00195c2.62487,7.58114 9.66422,19.54118 19.69922,29.57617c0.02421,0.02407 0.04963,0.04689 0.07617,0.06836c10.01977,9.99572 21.93745,17.01242 29.5,19.63086c0.83982,0.29153 1.7458,0.2872 2.57422,0.00977c0.13625,-0.04543 0.62825,-0.21358 1.50586,-0.51367c0.87863,-0.30044 2.04089,-0.69951 3.19922,-1.0957c2.31548,-0.79198 4.61485,-1.57733 4.61719,-1.57812l0.00195,-0.00195c1.41399,-0.48174 2.70479,-1.27313 3.77344,-2.32031c0.90179,-0.88276 2.06994,-2.03283 3.07617,-3.03906c2.33498,-2.33498 2.33497,-6.1494 0,-8.48438l-9,-9c-2.33442,-2.33431 -6.15046,-2.33511 -8.48438,0c-1.18052,1.18041 -5.48413,5.51045 -8.94531,8.99219c-5.12105,-2.63366 -10.61527,-5.6241 -14.77539,-9.78516c-0.00065,0 -0.0013,0 -0.00195,0c-4.16014,-4.16019 -7.15147,-9.65637 -9.78516,-14.77734c3.48174,-3.46118 7.81175,-7.76487 8.99219,-8.94531c2.3347,-2.3347 2.33419,-6.15007 0,-8.48438v-0.00195l-9,-8.99805c-1.16749,-1.16744 -2.70463,-1.75195 -4.24219,-1.75195zM28,16.99219c1.02144,0 2.04261,0.39418 2.82813,1.17969l9,9c1.57061,1.56981 1.5709,4.08535 0,5.65625c-0.08438,0.08438 -0.53339,0.52974 -0.64844,0.64453l-7.32617,-7.32617c-0.09421,-0.09737 -0.22389,-0.15234 -0.35937,-0.15234c-0.20372,0.00004 -0.38705,0.12367 -0.46345,0.31252c-0.0764,0.18885 -0.03059,0.40518 0.1158,0.54685l7.32422,7.32422c-1.82985,1.82365 -5.09678,5.07377 -8.16406,8.12305c-0.30824,0.30647 -0.38324,0.77695 -0.18555,1.16406c2.72036,5.31548 5.88,11.29406 10.5,15.91406c4.62008,4.62111 10.59867,7.77968 15.91406,10.5c0.38711,0.19769 0.85759,0.1227 1.16406,-0.18555c3.55609,-3.57709 8.23315,-8.28197 9.47266,-9.52148c1.56969,-1.57049 4.08656,-1.57049 5.65625,0l9,9c1.57103,1.57103 1.57103,4.08522 0,5.65625c-0.21205,0.21205 -0.42744,0.4211 -0.65039,0.64258l-7.32422,-7.32422c-0.09421,-0.09737 -0.22389,-0.15234 -0.35937,-0.15234c-0.20372,0.00004 -0.38705,0.12367 -0.46345,0.31252c-0.0764,0.18885 -0.03059,0.40518 0.1158,0.54685l7.32031,7.32031c-0.58861,0.58155 -1.20066,1.1897 -1.69922,1.67773c0,0.00065 0,0.0013 0,0.00195c-0.85447,0.83759 -1.88702,1.4693 -3.02148,1.85547c0,0 -2.3045,0.78967 -4.62109,1.58203c-1.1583,0.39618 -2.31874,0.79335 -3.19727,1.09375c-0.87852,0.3004 -1.57721,0.53746 -1.49414,0.50977c-0.00065,0 -0.0013,0 -0.00195,0c-0.41958,0.14053 -0.86507,0.14056 -1.28125,-0.00391c-0.00065,0 -0.0013,0 -0.00195,0c-7.14277,-2.47318 -19.0154,-9.42165 -28.81641,-19.22266c-9.801,-9.801 -16.74953,-21.67354 -19.22266,-28.81641c-0.14434,-0.41773 -0.14414,-0.86453 -0.00391,-1.2832c0,-0.00065 0,-0.0013 0,-0.00195c-0.02769,0.08308 0.20936,-0.61562 0.50977,-1.49414c0.3004,-0.87852 0.69757,-2.03897 1.09375,-3.19727c0.79237,-2.3166 1.58203,-4.62109 1.58203,-4.62109c0.38613,-1.13526 1.01763,-2.16677 1.85547,-3.02148c0.00065,0 0.0013,0 0.00195,0c0.87924,-0.89821 2.02567,-2.06278 3.02344,-3.06055c0.78546,-0.78546 1.80669,-1.17969 2.82813,-1.17969zM27.49414,21.99414c-0.20372,0.00004 -0.38705,0.12367 -0.46345,0.31252c-0.0764,0.18885 -0.03059,0.40518 0.1158,0.54685l2,2c0.12541,0.13061 0.31163,0.18321 0.48684,0.13753c0.17521,-0.04568 0.31204,-0.18251 0.35772,-0.35772c0.04568,-0.17521 -0.00693,-0.36143 -0.13753,-0.48684l-2,-2c-0.09421,-0.09737 -0.22389,-0.15234 -0.35937,-0.15234zM69.49414,63.99414c-0.20372,0.00004 -0.38705,0.12367 -0.46345,0.31252c-0.0764,0.18885 -0.03059,0.40518 0.1158,0.54685l2,2c0.12541,0.13061 0.31163,0.18321 0.48684,0.13753c0.17521,-0.04568 0.31204,-0.18251 0.35772,-0.35772c0.04568,-0.17521 -0.00693,-0.36143 -0.13753,-0.48684l-2,-2c-0.09421,-0.09737 -0.22389,-0.15234 -0.35937,-0.15234z"></path></g></g></svg>