<svg xmlns="http://www.w3.org/2000/svg" xmlns:xlink="http://www.w3.org/1999/xlink" viewBox="0,0,255.99841,255.99841" width="50px" height="50px" fill-rule="nonzero"><g fill="#ffffff" fill-rule="nonzero" stroke="none" stroke-width="1" stroke-linecap="butt" stroke-linejoin="miter" stroke-miterlimit="10" stroke-dasharray="" stroke-dashoffset="0" font-family="none" font-weight="none" font-size="none" text-anchor="none" style="mix-blend-mode: normal"><g transform="scale(5.12,5.12)"><path d="M22.19922,2c-0.48754,0.00089 -0.9034,0.35321 -0.98437,0.83398l-1.00977,5.96289c-1.189,0.3508 -2.30174,0.81041 -3.36914,1.37695l-4.96094,-3.49219c-0.39749,-0.27882 -0.93781,-0.23187 -1.28125,0.11133l-3.90039,3.90039c-0.3432,0.34344 -0.39015,0.88376 -0.11133,1.28125l3.49414,4.96484c-0.57294,1.04384 -1.0314,2.16973 -1.37695,3.35938l-5.85352,0.91406c-0.48616,0.07596 -0.84483,0.49427 -0.8457,0.98633v5.5c-0.00006,0.48828 0.35249,0.90522 0.83398,0.98633l5.96094,1.00781c0.35019,1.18753 0.80962,2.29719 1.375,3.36328l-3.48242,4.86133c-0.2848,0.39766 -0.24019,0.94298 0.10547,1.28906l3.90039,3.90039c0.34344,0.3432 0.88376,0.39015 1.28125,0.11133l4.96484,-3.49414c1.04601,0.57407 2.17486,1.03314 3.36719,1.37891l1.00781,5.96289c0.0811,0.4815 0.49805,0.83404 0.98633,0.83398h5.5c0.48186,-0.00049 0.89486,-0.34452 0.98242,-0.81836l1.10156,-5.97461c1.19297,-0.35116 2.30842,-0.81268 3.37891,-1.38086l4.96094,3.49219c0.39788,0.27993 0.93948,0.23294 1.2832,-0.11133l3.89844,-3.90039c0.34721,-0.34715 0.39107,-0.895 0.10352,-1.29297l-3.57812,-4.95703c0.56857,-1.03752 1.02612,-2.13597 1.36914,-3.26367l5.86914,-1.00781c0.47995,-0.0828 0.83046,-0.49929 0.83008,-0.98633v-5.5c-0.00089,-0.48754 -0.35321,-0.9034 -0.83398,-0.98437l-5.9668,-1.01172c-0.34366,-1.12889 -0.80138,-2.2293 -1.37109,-3.26758l3.49023,-4.96094c0.27882,-0.39749 0.23187,-0.93781 -0.11133,-1.28125l-3.90039,-3.90039c-0.34715,-0.34721 -0.895,-0.39107 -1.29297,-0.10352l-4.96094,3.58398c-1.04308,-0.57174 -2.16705,-1.03207 -3.35547,-1.37695l-1.01172,-6.06055c-0.08025,-0.48228 -0.49742,-0.83584 -0.98633,-0.83594zM23.04492,4h3.80859l0.96094,5.76367c0.0649,0.39259 0.35635,0.70935 0.74219,0.80664c1.5144,0.3786 2.92149,0.94462 4.11914,1.68164c0.34413,0.21166 0.78181,0.19548 1.10938,-0.04101l4.70898,-3.40234l2.70313,2.70313l-3.31445,4.71289c-0.23038,0.32659 -0.24421,0.75898 -0.03516,1.09961c0.73702,1.19766 1.30693,2.61339 1.68555,4.0332c0.10106,0.37881 0.41413,0.66363 0.80078,0.72852l5.66602,0.95898v3.8125l-5.57031,0.95703c-0.38515,0.06628 -0.69641,0.35084 -0.79688,0.72852c-0.37862,1.41981 -0.94658,2.83555 -1.68359,4.0332c-0.21166,0.34413 -0.19548,0.78181 0.04102,1.10938l3.40039,4.70898l-2.70312,2.70313l-4.71289,-3.31641c-0.31723,-0.22213 -0.73418,-0.24115 -1.07031,-0.04883c-1.33767,0.76438 -2.6416,1.32104 -4.14648,1.69727c-0.38,0.09533 -0.66934,0.40376 -0.74023,0.78906l-1.05078,5.68164h-3.82227l-0.95898,-5.66797c-0.06631,-0.39109 -0.35749,-0.70602 -0.74219,-0.80273c-1.5144,-0.3786 -2.92149,-0.94462 -4.11914,-1.68164c-0.34025,-0.20963 -0.77263,-0.19657 -1.09961,0.0332l-4.71289,3.31641l-2.70508,-2.70508l3.30664,-4.60937c0.2281,-0.31827 0.24947,-0.74039 0.05469,-1.08008c-0.76439,-1.33766 -1.32104,-2.6416 -1.69727,-4.14648c-0.097,-0.38527 -0.41285,-0.67658 -0.80469,-0.74219l-5.66602,-0.95898v-3.79883l5.55469,-0.86914c0.39687,-0.06162 0.71837,-0.35467 0.81641,-0.74414c0.3786,-1.5144 0.94267,-2.92149 1.67969,-4.11914c0.20963,-0.34025 0.19657,-0.77263 -0.0332,-1.09961l-3.31641,-4.71289l2.71094,-2.70898l4.71289,3.31445c0.31684,0.22275 0.73381,0.24253 1.07031,0.05078c1.33767,-0.76438 2.6416,-1.32104 4.14648,-1.69727c0.38603,-0.09633 0.67824,-0.41232 0.74414,-0.80469zM25,17c-4.42992,0 -8,3.57008 -8,8c0,4.42992 3.57008,8 8,8c4.42992,0 8,-3.57008 8,-8c0,-4.42992 -3.57008,-8 -8,-8zM25,19c3.37008,0 6,2.62992 6,6c0,3.37008 -2.62992,6 -6,6c-3.37008,0 -6,-2.62992 -6,-6c0,-3.37008 2.62992,-6 6,-6z"></path></g></g></svg>